<svg xmlns="http://www.w3.org/2000/svg" width="80" height="80" viewBox="0 0 80 80" fill="none"><g clip-path="url(#clip0_2713_41796)"><path d="M77.3933 73.9056C77.9346 73.9056 78.3832 74.3542 78.3832 74.8956C78.3832 75.437 77.9346 75.8855 77.3933 75.8855H6.72041C6.17904 75.8855 5.73047 75.437 5.73047 74.8956V74.8647V0.989946C5.73047 0.448569 6.17904 0 6.72041 0C7.26179 0 7.71036 0.448569 7.71036 0.989946V73.9056H77.3933Z" fill="#152A40"></path><path d="M3.31691 5.84692C2.93021 6.23362 2.3115 6.23362 1.9248 5.86239C1.5381 5.47569 1.5381 4.85697 1.90933 4.47027L6.02379 0.293939C6.41049 -0.0927582 7.02921 -0.0927582 7.4159 0.278472L7.43137 0.293939L7.44684 0.309407L11.5458 4.47027C11.9325 4.85697 11.9171 5.49116 11.5304 5.86239C11.1437 6.24908 10.5095 6.23362 10.1383 5.84692L6.73532 2.39757L3.33238 5.84692H3.31691ZM72.5203 71.4927C72.1336 71.106 72.1336 70.4873 72.5048 70.1006C72.8915 69.7139 73.5103 69.7139 73.897 70.0851L78.0578 74.1996C78.4445 74.5863 78.4445 75.205 78.0733 75.5917L78.0578 75.6072L78.0424 75.6226L73.8815 79.7216C73.4948 80.1083 72.8606 80.0929 72.4894 79.7062C72.1027 79.3195 72.1181 78.6853 72.5048 78.3141L75.9542 74.9111L72.5048 71.5082L72.5203 71.4927Z" fill="#152A40"></path><path d="M13.5107 49.2506C13.1704 49.6682 12.5362 49.7301 12.1186 49.3898C11.7009 49.0495 11.6391 48.4153 11.9794 47.9977L20.6878 37.3867C20.9972 37.0155 21.5231 36.9227 21.9252 37.1547L28.3289 40.6659L37.4086 28.1369C37.7334 27.6883 38.3521 27.5955 38.7852 27.9204L46.3027 32.4834L63.503 7.34804C63.8123 6.89947 64.431 6.77573 64.8796 7.08509C65.3282 7.39444 65.4519 8.01316 65.1426 8.46173L47.4163 34.355C47.1224 34.7881 46.5347 34.9118 46.0861 34.6489L38.4759 30.024L29.4272 42.5221C29.1333 42.9242 28.5919 43.048 28.1433 42.8159L21.6932 39.2738L13.4952 49.2506H13.5107Z" fill="#152A40"></path><path d="M57.5493 11.8027C57.0388 12.0038 56.4665 11.7717 56.2654 11.2613C56.0644 10.7509 56.2964 10.1786 56.8068 9.97747L63.9994 7.00763C64.5098 6.80655 65.0822 7.03857 65.2832 7.54901C65.3296 7.65729 65.3451 7.76556 65.3606 7.87384L65.7782 15.4067C65.8091 15.9481 65.3915 16.4121 64.8501 16.4431C64.3088 16.474 63.8447 16.0564 63.8138 15.515L63.4735 9.37422L57.5802 11.8182L57.5493 11.8027Z" fill="#152A40"></path><path d="M23.6892 56.3194H23.7201H32.8771C33.4185 56.3194 33.867 56.768 33.867 57.3093V57.3403V74.9118C33.867 75.4532 33.4185 75.9018 32.8771 75.9018H32.8462H23.6892C23.1478 75.9018 22.6992 75.4532 22.6992 74.9118V74.8809V57.3093C22.6992 56.768 23.1478 56.3194 23.6892 56.3194ZM31.8717 58.2993H24.6791V73.9064H31.8717V58.2993ZM39.8841 43.8059H39.915H49.072C49.6134 43.8059 50.0619 44.2544 50.0619 44.7958V44.8267V74.8964C50.0619 75.4377 49.6134 75.8863 49.072 75.8863H49.0411H39.8841C39.3427 75.8863 38.8941 75.4377 38.8941 74.8964V74.8654V44.7958C38.8941 44.2544 39.3427 43.8059 39.8841 43.8059ZM48.0666 45.7858H40.874V73.8909H48.0666V45.7858ZM56.0326 33.9219H56.0635H65.2205C65.7619 33.9219 66.2104 34.3704 66.2104 34.9118V34.9428V74.8964C66.2104 75.4377 65.7619 75.8863 65.2205 75.8863H65.1896H56.0326C55.4912 75.8863 55.0426 75.4377 55.0426 74.8964V74.8654V34.9118C55.0426 34.3704 55.4912 33.9219 56.0326 33.9219ZM64.2151 35.9018H57.0225V73.9064H64.2151V35.9018Z" fill="#152A40"></path><path fill-rule="evenodd" clip-rule="evenodd" d="M58.7695 37.5879H62.4664V72.2051H58.7695V37.5879Z" fill="#F3DABA"></path><path fill-rule="evenodd" clip-rule="evenodd" d="M42.791 47.8262H46.1476V71.8633H42.791V47.8262Z" fill="#F3DABA"></path><path fill-rule="evenodd" clip-rule="evenodd" d="M26.5977 60.3398H29.9387V72.1109H26.5977V60.3398Z" fill="#F3DABA"></path></g><defs><clipPath id="clip0_2713_41796"><rect width="80" height="80" fill="white"></rect></clipPath></defs></svg>