<svg xmlns="http://www.w3.org/2000/svg" width="80" height="80" viewBox="0 0 80 80" fill="none"><g clip-path="url(#clip0_2713_41807)"><path d="M34.1284 54.8289C33.7582 54.4256 33.7846 53.7975 34.1879 53.4272C34.5912 53.057 35.2193 53.0834 35.5896 53.4867L39.8408 58.1148C40.2111 58.5182 40.1846 59.1462 39.7813 59.5165C39.702 59.5892 39.6094 59.6487 39.5102 59.695L35.8739 61.4537C35.3846 61.6917 34.7896 61.4867 34.5516 60.9909C34.3135 60.5016 34.5185 59.9066 35.0144 59.6686L37.4805 58.4785L34.1284 54.8355V54.8289Z" fill="#152A40"></path><path fill-rule="evenodd" clip-rule="evenodd" d="M27.8477 57.2037C43.332 48.9459 60.6477 46.9492 69.6063 52.5889C61.9766 39.3723 34.6972 46.017 27.8477 57.2037Z" fill="#F3DABA"></path><path d="M20.2577 61.8982C19.947 61.4486 20.0593 60.8337 20.5089 60.5164C20.9585 60.2056 21.5734 60.318 21.8908 60.7676C23.861 63.604 26.1552 66.1428 28.7536 68.3841C31.3717 70.6387 34.3139 72.6023 37.5668 74.2816C37.818 74.4073 38.0759 74.4734 38.3271 74.4668H38.3536C38.5916 74.4535 38.8428 74.3808 39.0808 74.2354L43.3651 71.6899C43.6098 71.5445 43.8015 71.3527 43.9271 71.1279C44.0527 70.9031 44.1255 70.6387 44.1255 70.361V70.3544C44.1255 70.0701 44.0593 69.8056 43.9337 69.5808C43.8081 69.356 43.6164 69.1643 43.3717 69.0188C40.7139 67.4122 38.2478 65.6007 36.0395 63.518C33.8313 61.4354 31.8808 59.0816 30.2676 56.3907C29.9899 55.9213 30.142 55.3131 30.6048 55.0354C31.0742 54.7577 31.6825 54.9097 31.9602 55.3726C33.4742 57.8916 35.3056 60.1064 37.3949 62.0701C39.4841 64.0403 41.8445 65.7726 44.3899 67.3131C44.9321 67.637 45.3618 68.08 45.6527 68.6023C45.937 69.1114 46.0891 69.6998 46.0957 70.3279V70.3478V70.3544C46.0957 70.9891 45.937 71.5841 45.6395 72.0998C45.342 72.6155 44.9122 73.0585 44.3635 73.3825L40.0792 75.9279C39.5569 76.2387 38.9883 76.404 38.4131 76.4304H38.3866C37.7982 76.4502 37.2098 76.318 36.661 76.0337C33.2693 74.2883 30.2015 72.2387 27.4577 69.8717C24.7271 67.518 22.3205 64.8535 20.2643 61.8916L20.2577 61.8982Z" fill="#152A40"></path><path d="M15.4582 37.7118C15.1871 37.2423 15.3524 36.6341 15.8218 36.363C16.2913 36.0919 16.8995 36.2572 17.1706 36.7266L28.7078 56.7134C28.9789 57.1828 28.8136 57.7911 28.3442 58.0622C27.8747 58.3332 27.2665 58.1679 26.9954 57.6985L15.4582 37.7118ZM24.0797 59.5894C24.3508 60.0589 24.1921 60.6671 23.7227 60.9382C23.2533 61.2093 22.645 61.0506 22.3739 60.5812L10.7904 40.5151C10.5194 40.0456 10.678 39.4374 11.1475 39.1663C11.6169 38.8952 12.2252 39.0539 12.4962 39.5233L24.0797 59.5894Z" fill="#152A40"></path><path d="M4.99141 42.4934C16.3699 36.6355 25.1964 30.5264 31.2592 24.1462C37.236 17.8586 40.5154 11.3132 40.8856 4.49666C40.9121 3.95451 41.3815 3.53137 41.9236 3.55782C42.2674 3.57765 42.565 3.76939 42.7303 4.04707L70.4658 52.0801C70.7369 52.5495 70.5782 53.1578 70.1088 53.4289C69.7782 53.6206 69.3881 53.6008 69.084 53.4091C63.2327 49.7264 55.9402 49.0256 47.3848 50.9562C38.684 52.9198 28.6807 57.6008 17.5534 64.6421C17.5203 64.6619 17.4939 64.6752 17.4608 64.695C15.4509 65.8388 13.1567 66.4206 10.6906 65.7198C8.27736 65.0322 5.73852 63.1016 3.20629 59.2206C2.71703 58.4735 2.27405 57.7066 1.87736 56.9529C0.548434 54.3743 -0.165615 51.776 0.0327318 49.4024C0.244302 46.9231 1.43438 44.7281 3.93356 43.095C4.26414 42.8834 4.61455 42.6719 4.99141 42.4801V42.4934ZM32.6939 25.5082C26.4724 32.0537 17.4674 38.295 5.89719 44.252C5.57984 44.4173 5.28232 44.5892 5.01124 44.7677C3.08728 46.0239 2.16827 47.6967 2.00959 49.5743C1.83769 51.5578 2.4724 53.7991 3.63604 56.0537C3.99306 56.7545 4.40959 57.4553 4.86579 58.1495C7.1005 61.5743 9.24926 63.2537 11.2327 63.8157C13.1104 64.3512 14.9022 63.8818 16.4889 62.9826L16.5022 62.9694C27.8146 55.8091 38.0228 51.0421 46.955 49.0322C54.6046 47.3066 61.3286 47.5843 67.041 50.0967L42.5253 7.63715C41.4476 13.8454 38.1286 19.7958 32.7005 25.5082H32.6939Z" fill="#152A40"></path><path d="M70.6843 36.6675C70.5851 37.203 70.0628 37.5534 69.5273 37.4543C68.9917 37.3551 68.6413 36.8328 68.7405 36.2972C69.5339 32.2179 68.5554 27.96 66.4926 24.3832C64.3306 20.641 60.9983 17.6592 57.2628 16.403C56.7471 16.2311 56.4628 15.6691 56.6413 15.1534C56.8132 14.6377 57.3752 14.3534 57.8909 14.5319C62.0826 15.9402 65.8116 19.2592 68.205 23.4047C70.4926 27.3716 71.5769 32.1121 70.6843 36.6741V36.6675Z" fill="#152A40"></path><path d="M57.2888 7.31932C56.7467 7.27965 56.3301 6.81023 56.3698 6.26147C56.4095 5.71932 56.8789 5.30279 57.4277 5.34246C58.307 5.40857 59.1863 5.53419 60.0392 5.71271C66.3202 7.02841 71.583 11.3193 75.1268 17.1904C78.631 23.002 80.4624 30.3739 79.9004 37.9375C79.7814 39.5243 79.5566 41.1243 79.2194 42.7243C79.107 43.2598 78.5847 43.6036 78.0491 43.4912C77.5136 43.3788 77.1698 42.8565 77.2822 42.321C77.5996 40.8201 77.8111 39.3061 77.9235 37.7987C78.4524 30.6449 76.7334 23.683 73.4343 18.2152C70.1681 12.8003 65.3483 8.8532 59.6359 7.65651C58.8756 7.49783 58.0888 7.38543 57.2888 7.32593V7.31932Z" fill="#152A40"></path><path fill-rule="evenodd" clip-rule="evenodd" d="M10.4262 43.8933L19.1337 58.9677C19.1337 58.9677 14.4064 63.1727 11.0742 61.7313C7.74194 60.29 2.94194 52.1842 3.82789 48.8851C4.21798 45.9628 10.4262 43.8867 10.4262 43.8867V43.8933Z" fill="#F3DABA"></path><path d="M41.6933 18.6981C41.9379 18.2089 42.5329 18.0105 43.0156 18.2552C43.5048 18.4998 43.7032 19.0948 43.4585 19.5775C43.4453 19.6105 37.918 30.6717 22.8172 39.3857C22.3478 39.6568 21.7395 39.4915 21.4685 39.0221C21.1974 38.5527 21.3627 37.9444 21.8321 37.6733C36.4106 29.2568 41.6734 18.7246 41.6866 18.6981H41.6933Z" fill="#F3DABA"></path></g><defs><clipPath id="clip0_2713_41807"><rect width="80" height="80" fill="white"></rect></clipPath></defs></svg>