<svg xmlns="http://www.w3.org/2000/svg" width="80" height="80" viewBox="0 0 80 80" fill="none"><path fill-rule="evenodd" clip-rule="evenodd" d="M22.0645 31.3879L23.1468 22.5391H24.59L25.9572 31.4258L24.0013 33.3437L22.0645 31.3879Z" fill="#152A40"></path><path d="M40.9395 52.0488H40.9585H54.2317C54.7824 52.0488 55.2191 52.4855 55.2191 53.0362V53.0552V55.182C55.2191 55.8466 54.9533 56.4542 54.5166 56.891C54.0798 57.3277 53.4722 57.5935 52.8076 57.5935H51.4973C51.3074 58.3151 50.9467 58.9417 50.434 59.4544L50.415 59.4734C49.6934 60.195 48.687 60.6318 47.5856 60.6318C46.4843 60.6318 45.4589 60.176 44.7373 59.4544L44.7183 59.4355C44.2246 58.9417 43.8638 58.2961 43.6739 57.5935H42.3637C41.6991 57.5935 41.0914 57.3277 40.6547 56.891C40.218 56.4542 39.9521 55.8466 39.9521 55.182V53.0362C39.9521 52.4855 40.3889 52.0488 40.9395 52.0488ZM53.2443 54.0236H41.927V55.182C41.927 55.2959 41.9839 55.4098 42.0599 55.4858C42.1358 55.5617 42.2498 55.6187 42.3637 55.6187H44.5094H44.5284C45.0791 55.6187 45.5158 56.0554 45.5158 56.6061C45.5158 57.1758 45.7437 57.6695 46.1045 58.0493L46.1235 58.0683C46.4843 58.429 46.997 58.6569 47.5666 58.6569C48.1363 58.6569 48.63 58.429 49.0098 58.0683L49.0288 58.0493C49.3896 57.6885 49.6174 57.1758 49.6174 56.6251V56.6061C49.6174 56.0554 50.0542 55.6187 50.6049 55.6187H52.7886C52.9025 55.6187 53.0164 55.5617 53.0924 55.4858C53.1684 55.4098 53.2253 55.2959 53.2253 55.182V54.0236H53.2443ZM33.8757 23.1288C33.7997 23.6605 33.287 24.0402 32.7553 23.9643C32.2237 23.8883 31.8439 23.3756 31.9198 22.844C32.5085 19.0082 34.4643 15.6282 37.2747 13.1976C40.0471 10.824 43.6549 9.38086 47.6046 9.38086C51.991 9.38086 55.9597 11.1658 58.827 14.0331L58.884 14.0901C61.7323 16.9574 63.4793 20.9071 63.4793 25.2555C63.4793 27.5152 63.0046 29.6609 62.1501 31.6168C61.2576 33.6486 59.9664 35.4525 58.3523 36.9337C57.8586 37.3894 57.4598 37.8831 57.156 38.4148C56.8522 38.9465 56.6433 39.5351 56.4914 40.1998L55.2571 46.1053C55.1622 46.58 54.7444 46.8838 54.2887 46.8838H40.9395C40.4268 46.8838 40.0281 46.5041 39.9521 46.0293L38.7178 40.1998C38.6799 39.9909 38.6229 39.763 38.5469 39.5541L38.528 39.5162C38.471 39.3263 38.395 39.1364 38.3191 38.9465C38.1102 38.4528 38.3381 37.8641 38.8318 37.6363C39.3255 37.4274 39.9141 37.6553 40.142 38.149C40.2559 38.3958 40.3509 38.6427 40.4268 38.8895L40.4458 38.9465C40.5218 39.2123 40.5977 39.4972 40.6737 39.782L41.7561 44.89H53.4912L54.5735 39.782C54.7444 38.9275 55.0482 38.149 55.447 37.4274C55.8648 36.7058 56.3775 36.0602 57.0231 35.4715C58.4283 34.1803 59.5676 32.6042 60.3461 30.8383C61.0867 29.1293 61.5045 27.2494 61.5045 25.2555C61.5045 21.4388 59.9664 17.9828 57.4978 15.4953L57.4408 15.4573C54.9343 12.9508 51.4594 11.3937 47.6236 11.3937C44.1676 11.3937 41.0155 12.6469 38.5849 14.7357C36.1164 16.8435 34.4074 19.8057 33.8947 23.1668L33.8757 23.1288ZM58.865 14.0711C59.2068 14.4699 59.1878 15.0585 58.808 15.4193L58.865 14.0711ZM39.9331 45.9914C39.9331 45.9534 39.9331 45.8964 39.9331 45.8584V45.9914ZM40.9585 50.7006C40.4078 50.7386 39.9521 50.3208 39.9141 49.7701C39.8762 49.2195 40.2939 48.7637 40.8446 48.7257L54.1368 47.9662C54.6875 47.9282 55.1432 48.346 55.1812 48.8966C55.2191 49.4473 54.8014 49.9031 54.2507 49.941L40.9585 50.7006Z" fill="#F3DABA"></path><path d="M65.3021 42.3831C65.6819 42.7629 65.6819 43.3895 65.3021 43.7883C64.9223 44.1681 64.2957 44.1681 63.8969 43.7883L59.8523 39.7437C59.4725 39.3639 59.4725 38.7372 59.8523 38.3385C60.2321 37.9587 60.8587 37.9587 61.2575 38.3385L65.3021 42.3831ZM72.1571 25.0083C72.7078 25.0083 73.1445 25.4451 73.1445 25.9957C73.1445 26.5464 72.7078 26.9832 72.1571 26.9832H66.4414C65.8908 26.9832 65.454 26.5464 65.454 25.9957C65.454 25.4451 65.8908 25.0083 66.4414 25.0083H72.1571ZM64.7324 7.86138C65.1122 7.48161 65.7389 7.48161 66.1376 7.86138C66.5174 8.24116 66.5174 8.86779 66.1376 9.26656L62.093 13.3112C61.7132 13.691 61.0866 13.691 60.6878 13.3112C60.308 12.9314 60.308 12.3048 60.6878 11.906L64.7324 7.86138ZM47.3387 0.98742C47.3387 0.436743 47.7754 0 48.3261 0C48.8768 0 49.3135 0.436743 49.3135 0.98742V6.70306C49.3135 7.25374 48.8768 7.69048 48.3261 7.69048C47.7754 7.69048 47.3387 7.25374 47.3387 6.70306V0.98742ZM29.736 7.76644C29.3562 7.38666 29.3562 6.76003 29.736 6.36126C30.1158 5.98149 30.7424 5.98149 31.1412 6.36126L35.1668 10.4439C35.5466 10.8236 35.5466 11.4503 35.1668 11.849C34.787 12.2288 34.1604 12.2288 33.7616 11.849L29.736 7.76644Z" fill="#152A40"></path><path d="M13.4831 31.2737C13.502 30.7231 13.9768 30.3053 14.5084 30.3243C15.0591 30.3433 15.4769 30.818 15.4579 31.3497L14.4705 51.4779L33.2125 51.4019L32.1301 31.3497C32.1111 30.799 32.5289 30.3433 33.0606 30.3053C33.6112 30.2863 34.067 30.7041 34.1049 31.2358L35.2443 52.3134V52.3514C35.2443 52.902 34.8075 53.3388 34.2568 53.3388L13.502 53.4337C13.4641 53.4337 13.4261 53.4337 13.4071 53.4337C12.8564 53.4147 12.4387 52.94 12.4577 52.4083L13.502 31.2358L13.4831 31.2737Z" fill="#152A40"></path><path d="M18.6276 20.3364C18.9124 19.8617 19.5201 19.7098 19.9758 19.9946C20.4505 20.2794 20.6024 20.8871 20.3176 21.3428L18.9884 23.5835L20.1467 23.8683C20.6594 24.0012 20.9822 24.5139 20.8873 25.0266L20.5265 26.8685L24.2103 33.1728L27.5903 25.9001L27.3625 24.4949C27.2865 23.9633 27.6473 23.4506 28.179 23.3556H28.198L26.8498 21.2479C26.5649 20.7921 26.6979 20.1845 27.1536 19.8807C27.6093 19.5958 28.217 19.7287 28.5208 20.1845L30.8184 23.7734C30.9134 23.9253 30.9704 24.0962 30.9704 24.2861C30.9704 24.8367 30.5526 25.2735 30.0019 25.2925H29.5082L29.6032 25.8242C29.6411 26.033 29.6222 26.2419 29.5272 26.4508L25.2357 35.7174C25.1598 35.8883 25.0079 36.0592 24.837 36.1541C24.3622 36.4199 23.7546 36.268 23.4888 35.7933L18.7036 27.5711C18.5706 27.3623 18.4947 27.0964 18.5517 26.8306L18.7985 25.5583L17.2984 25.1975C17.1845 25.1785 17.0895 25.1406 16.9756 25.0836C16.5009 24.7988 16.3489 24.1911 16.6338 23.7354L18.6466 20.3554L18.6276 20.3364ZM19.748 16.8045C19.4251 16.3677 19.5201 15.7411 19.9568 15.4183C20.3936 15.0955 21.0202 15.1904 21.343 15.6272C21.6468 16.0259 21.9317 16.3677 22.2545 16.6336C22.7672 17.0893 23.2609 17.3172 23.7546 17.3361C24.2293 17.3551 24.742 17.1652 25.2547 16.7855C25.5585 16.5576 25.8624 16.2728 26.1662 15.912C26.527 15.4942 27.1536 15.4563 27.5714 15.817C27.9891 16.1778 28.0271 16.8045 27.6663 17.2222C27.2675 17.6779 26.8498 18.0577 26.432 18.3615C25.5395 19.0262 24.6091 19.349 23.6786 19.311H23.6597C22.7102 19.273 21.8177 18.8742 20.9632 18.1147C20.5645 17.7729 20.1657 17.3172 19.7859 16.8045H19.748Z" fill="#152A40"></path><path d="M23.3379 35.2804C23.3379 34.7297 23.7746 34.293 24.3253 34.293C24.876 34.293 25.3127 34.7297 25.3127 35.2804L25.3887 52.4463C25.3887 52.997 24.9519 53.4337 24.4013 53.4337C23.8506 53.4337 23.4138 52.997 23.4138 52.4463L23.3379 35.2804Z" fill="#152A40"></path><path d="M23.2425 53.8139V53.7949L23.2615 53.681L23.2804 53.624L23.3184 53.5481V53.5291C23.3754 53.4152 23.4324 53.3012 23.5273 53.2253C23.6222 53.1303 23.7172 53.0734 23.8311 53.0164H23.8501L23.9261 52.9784L23.983 52.9594L24.097 52.9404H24.116H24.1729H24.2299H24.2869H24.3438H24.3628L24.4767 52.9594L24.5337 52.9784L24.6097 53.0164H24.6287C24.7426 53.0734 24.8565 53.1303 24.9325 53.2253C25.0274 53.3202 25.0844 53.4152 25.1414 53.5291V53.5481L25.1793 53.624L25.1983 53.681L25.2173 53.7949V53.8139V53.8709L26.4706 77.9298L32.3951 77.9867V52.3898C32.3951 51.8391 32.8318 51.4023 33.3825 51.4023C33.9332 51.4023 34.3699 51.8391 34.3699 52.3898V78.9552V78.9741C34.3699 79.5248 33.9142 79.9616 33.3825 79.9616L25.5781 79.8666C25.0464 79.8856 24.5907 79.4679 24.5527 78.9362L24.2299 72.8408L23.9071 78.9362C23.8881 79.4679 23.4324 79.8856 22.8817 79.8666L15.0773 79.9616C14.5266 79.9616 14.0898 79.5248 14.0898 78.9741V78.9552V52.3898C14.0898 51.8391 14.5266 51.4023 15.0773 51.4023C15.6279 51.4023 16.0647 51.8391 16.0647 52.3898V77.9867L21.9892 77.9298L23.2425 53.8709V53.8139Z" fill="#152A40"></path><path d="M32.6793 34.8068C32.2426 34.484 32.1476 33.8574 32.4704 33.4206C32.7932 32.9839 33.4199 32.8889 33.8566 33.2118L44.1676 40.8073C44.4904 41.0541 44.8132 41.1681 45.06 41.1491H45.079C45.2879 41.1491 45.4778 41.0541 45.6297 40.8832L54.6494 30.9141L54.6874 30.8761C55.1241 30.4394 55.2001 29.9457 55.0862 29.5279L55.0672 29.4899C55.0102 29.3001 54.8963 29.1102 54.7444 28.9583C54.5924 28.7874 54.4026 28.6544 54.2127 28.5595C53.8139 28.3886 53.3582 28.3886 52.9214 28.6924L46.807 34.56C46.2943 35.0537 45.7247 35.2625 45.136 35.2246C44.5473 35.1866 44.0157 34.9018 43.5409 34.4081C42.7624 33.5915 41.661 32.3003 40.5027 30.9141L40.4458 30.8571C38.338 28.3316 35.9834 25.5403 35.2808 25.3124C35.2428 25.2934 35.2048 25.2934 35.1669 25.2744C34.1984 24.8187 33.23 24.5528 32.2995 24.287C30.3247 23.7363 28.5208 23.2426 26.9257 21.3057C26.47 20.7551 26.1851 19.8816 26.0332 19.0271C25.8433 17.9447 25.8623 16.7674 26.0332 16.2737C26.2041 15.799 26.489 15.3812 26.7928 14.9445C27.0016 14.6407 27.2485 14.2989 27.4004 14.014L27.4194 13.995L27.4764 13.8811V13.8621C27.8941 13.1026 30.1728 8.963 27.9511 6.11467C27.2295 5.18422 26.2611 4.61455 25.2357 4.3677C24.3052 4.13983 23.3368 4.17781 22.4443 4.46264C21.5708 4.74748 20.7923 5.26017 20.2226 6.00074C19.634 6.76029 19.2732 7.78569 19.2732 9.05794C19.2732 10.3872 19.4631 11.5645 19.8049 12.6468C20.1467 13.7292 20.6784 14.7166 21.343 15.6661C21.4189 15.78 21.4759 15.8939 21.4949 16.0268C21.5708 16.3307 22.5203 19.9575 19.4061 22.1982C19.3302 22.2552 19.2542 22.2932 19.1782 22.3122H19.1593C18.7035 22.502 18.1339 22.6919 17.4882 22.9008C14.8868 23.7933 10.9561 25.1035 10.6902 27.3062C10.1585 31.5977 9.83573 37.1614 9.53191 42.5163C9.32303 46.0292 9.13315 49.4662 8.88629 52.4475L12.703 52.7893C13.2537 52.8462 13.6525 53.3209 13.5955 53.8716C13.5386 54.4223 13.0638 54.8211 12.5132 54.7641L7.72797 54.3274C7.17729 54.2704 6.77853 53.7957 6.8355 53.245C7.12033 50.1688 7.34819 46.333 7.57606 42.4024C7.89887 36.9715 8.22168 31.3508 8.73438 27.0594C9.15213 23.6224 13.7854 22.0463 16.8616 21.0019C17.4313 20.812 17.944 20.6411 18.3427 20.4702C20.0138 19.217 19.7289 17.2231 19.596 16.6155C18.8554 15.5711 18.2858 14.4318 17.887 13.2165C17.4692 11.9253 17.2604 10.5391 17.2604 9.01997C17.2604 7.29198 17.7731 5.86782 18.6276 4.76646C19.4441 3.6841 20.5834 2.94354 21.8367 2.54477C23.071 2.146 24.4192 2.10803 25.6914 2.41185C27.1346 2.77264 28.4828 3.57017 29.5082 4.8804C32.5274 8.75412 29.7171 13.8621 29.2044 14.7926L29.1474 14.8875C28.9195 15.3433 28.6537 15.723 28.4068 16.0648C28.179 16.3876 27.9701 16.6915 27.8941 16.9003C27.8182 17.1282 27.8372 17.8878 27.9701 18.6663C28.065 19.236 28.2169 19.7677 28.4258 20.0145C29.6221 21.4577 31.1412 21.8944 32.7932 22.3501C33.7997 22.635 34.863 22.9198 35.9454 23.4325C37.1987 23.9452 39.6862 26.8885 41.9079 29.5469L41.9649 29.6039C43.1042 30.9711 44.1866 32.2623 44.9081 33.0029C45.0411 33.1358 45.155 33.2118 45.212 33.2118C45.2499 33.2118 45.3069 33.1738 45.3829 33.0978L51.5163 27.1923L51.5922 27.1353C52.6746 26.2808 53.9278 26.2618 54.9532 26.7176C55.409 26.9264 55.8267 27.2303 56.1495 27.5911C56.4723 27.9518 56.7192 28.3696 56.8711 28.8253L56.8901 28.8823C57.2319 29.9457 57.042 31.161 56.0166 32.2053L47.0159 42.1555C46.5032 42.7252 45.8006 43.048 45.0221 43.067C44.3385 43.086 43.6169 42.8581 42.9333 42.3454L32.6223 34.7498L32.6793 34.8068Z" fill="#152A40"></path></svg>